# xmcd
#
# Track frame offsets: 
#        150
#        4083
#        15416
#        39945
#        51616
#        63448
#        72224
#        87385
#        108725
#        125313
#        145050
#        156650
#        176134
#        193271
#        209311
#        220376
#
# Disc length: 2983 seconds
#
# Revision: 0
# Processed by: cddbd v1.5.2PL0 Copyright (c) Steve Scherf et al.
# Submitted via: ExactAudioCopy v1.0b3
#
DISCID=f10ba510
DTITLE=Various Artist - Svenska Skratt [CD 11)
DYEAR=2011
DGENRE=Comedy
TTITLE0=Sonya Hedenbratt and Sten-Åke Cederhök - Knö Dej In
TTITLE1=Sten-Åke Cederhök - Jubel I Busken
TTITLE2=Sten-Åke Cederhök - Tilda Dansar Jazzbalett
TTITLE3=Sten-Åke Cederhök, Marita Örngren, Nisse Peters, Rulle Lövgren
TTITLE3=Spårvagnen
TTITLE4=Sonya Hedenbratt and Sten-Åke Cederhök - Kanalsimmarne
TTITLE5=Sten-Åke Cederhök and Nisse Peters - Pantbanken
TTITLE6=Sonya Hedenbratt - Ta Det Lilla Lugna
TTITLE7=Sten-Åke Cederhök, Sonya Hedenbratt, Nisse Peters - Solsken Öv
TTITLE7=er Toltorpsdalen
TTITLE8=Sonya Hedenbratt - Isidor
TTITLE9=Sten-Åke Cederhök - Frösaboxen
TTITLE10=Sten-Åke Cederhök - Le En Smula
TTITLE11=Sten-Åke Cederhök, Marita Örngren, Rulle Lövgren - Sjukkassan
TTITLE12=Sten-Åke Cederhök - Den Mognaste Bananen
TTITLE13=Sonya Hedenbratt - Sofie Propp
TTITLE14=Sten-Åke Cederhök - Ett Militärt Minne
TTITLE15=Sonya Hedenbratt and Sten-Åke Cederhök - Låt Hjärtat Va' Me'
EXTD=
EXTT0=
EXTT1=
EXTT2=
EXTT3=
EXTT4=
EXTT5=
EXTT6=
EXTT7=
EXTT8=
EXTT9=
EXTT10=
EXTT11=
EXTT12=
EXTT13=
EXTT14=
EXTT15=
PLAYORDER=
